<svg width="679" height="466" viewBox="0 0 679 466" fill="none" xmlns="http://www.w3.org/2000/svg">
<path opacity="0.4" d="M31.201 98.2057H0.767517V115.575H31.201V98.2057Z" fill="white"/>
<path opacity="0.4" d="M31.201 132.221H0.767517V149.591H31.201V132.221Z" fill="white"/>
<path opacity="0.4" d="M31.201 166.237H0.767517V183.606H31.201V166.237Z" fill="white"/>
<path opacity="0.4" d="M31.201 200.252H0.767517V217.622H31.201V200.252Z" fill="white"/>
<path opacity="0.4" d="M31.201 234.267H0.767517V251.637H31.201V234.267Z" fill="white"/>
<path opacity="0.4" d="M31.201 268.283H0.767517V285.652H31.201V268.283Z" fill="white"/>
<path opacity="0.4" d="M31.201 302.298H0.767517V319.668H31.201V302.298Z" fill="white"/>
<path opacity="0.4" d="M21.7812 43.202H8.73822V70.7039H21.7812V43.202Z" fill="white"/>
<path opacity="0.1" d="M608.402 391.281C603.242 393.937 597.837 396.231 592.504 398.518C572.802 406.827 552.802 415.208 531.637 418.059C491.885 423.343 450.865 408.868 411.808 417.9C379.092 425.441 352.035 448.55 320.073 458.842C305.211 463.625 289.748 465.5 274.147 465.5H272.133C270.201 465.476 268.283 465.428 266.38 465.355C250.561 464.762 234.678 462.424 219.171 459.435C170.21 450.027 120.379 432.78 82.9453 401.03C191.941 381.142 416.46 350.615 608.402 391.281Z" fill="#252223"/>
<path opacity="0.4" d="M68.8806 115.575H99.3141V98.2057H68.8806V115.575Z" fill="white"/>
<path opacity="0.4" d="M68.8806 149.591H99.3141V132.221H68.8806V149.591Z" fill="white"/>
<path opacity="0.4" d="M68.8806 183.606H99.3141V166.237H68.8806V183.606Z" fill="white"/>
<path opacity="0.4" d="M68.8806 217.622H99.3141V200.252H68.8806V217.622Z" fill="white"/>
<path opacity="0.4" d="M68.8806 251.637H99.3141V234.267H68.8806V251.637Z" fill="white"/>
<path opacity="0.4" d="M68.8806 285.652H99.3141V268.283H68.8806V285.652Z" fill="white"/>
<path opacity="0.4" d="M68.8806 319.668H99.3141V302.298H68.8806V319.668Z" fill="white"/>
<path opacity="0.4" d="M195.687 259.598H124.675V268.283H195.687V259.598Z" fill="white"/>
<path opacity="0.4" d="M195.687 272.625H124.675V281.31H195.687V272.625Z" fill="white"/>
<path opacity="0.4" d="M195.687 285.652H124.675V294.337H195.687V285.652Z" fill="white"/>
<path opacity="0.4" d="M381.186 263.94H310.175V272.625H381.186V263.94Z" fill="white"/>
<path opacity="0.4" d="M381.186 276.968H310.175V285.652H381.186V276.968Z" fill="white"/>
<path opacity="0.4" d="M381.186 289.995H310.175V298.68H381.186V289.995Z" fill="white"/>
<path opacity="0.4" d="M195.687 298.68H124.675V307.364H195.687V298.68Z" fill="white"/>
<path opacity="0.4" d="M195.687 311.707H124.675V320.392H195.687V311.707Z" fill="white"/>
<path opacity="0.4" d="M195.687 324.734H124.675V333.419H195.687V324.734Z" fill="white"/>
<path opacity="0.4" d="M241.337 169.855H221.773V195.186H241.337V169.855Z" fill="white"/>
<path opacity="0.4" d="M264.525 195.186H284.089V169.855H264.525V195.186Z" fill="white"/>
<path opacity="0.4" d="M241.337 210.384H221.773V235.715H241.337V210.384Z" fill="white"/>
<path opacity="0.4" d="M264.525 235.715H284.089V210.384H264.525V235.715Z" fill="white"/>
<path opacity="0.4" d="M241.337 250.913H221.773V276.244H241.337V250.913Z" fill="white"/>
<path opacity="0.4" d="M264.525 276.244H284.089V250.913H264.525V276.244Z" fill="white"/>
<path opacity="0.4" d="M241.337 291.442H221.773V316.773H241.337V291.442Z" fill="white"/>
<path opacity="0.4" d="M264.525 316.773H284.089V291.442H264.525V316.773Z" fill="white"/>
<path opacity="0.4" d="M418.141 33.7935H392.056V67.0852H418.141V33.7935Z" fill="white"/>
<path opacity="0.4" d="M418.141 81.5598H392.056V114.852H418.141V81.5598Z" fill="white"/>
<path opacity="0.4" d="M418.141 129.326H392.056V162.618H418.141V129.326Z" fill="white"/>
<path opacity="0.4" d="M418.141 177.093H392.056V210.384H418.141V177.093Z" fill="white"/>
<path opacity="0.4" d="M418.141 224.859H392.056V258.151H418.141V224.859Z" fill="white"/>
<path opacity="0.4" d="M418.141 272.625H392.056V305.917H418.141V272.625Z" fill="white"/>
<path opacity="0.4" d="M571.396 101.824H474.298V130.05H571.396V101.824Z" fill="white"/>
<path opacity="0.4" d="M571.758 162.618H474.661V190.843H571.758V162.618Z" fill="white"/>
<path opacity="0.4" d="M572.12 223.411H475.023V251.637H572.12V223.411Z" fill="white"/>
<path opacity="0.4" d="M572.483 284.205H475.385V312.431H572.483V284.205Z" fill="white"/>
<path opacity="0.4" d="M679 169.855H646.393V211.832H679V169.855Z" fill="white"/>
<path opacity="0.4" d="M679 230.649H646.393V272.625H679V230.649Z" fill="white"/>
<path opacity="0.4" d="M679 291.442H646.393V333.419H679V291.442Z" fill="white"/>
<path d="M22.9912 320.066C22.9912 320.066 -34.0571 354.443 71.1052 407.37C71.1052 407.37 94.2926 364.409 68.656 329.38C63.6839 322.553 56.3772 317.783 48.12 315.976C39.8629 314.168 31.2289 315.449 23.8535 319.574L22.9912 320.066Z" fill="#5B22FF"/>
<path d="M23.6506 319.342C23.6506 319.342 72.4674 356.651 71.1052 407.37" stroke="#535461" stroke-miterlimit="10"/>
<path d="M73.7572 409.324C73.7572 409.324 55.8811 348.704 77.1121 304.086C86.0248 285.363 88.9812 264.339 84.8654 244.016C82.8974 234.367 80.0474 224.919 76.3513 215.791" stroke="#535461" stroke-width="2" stroke-miterlimit="10"/>
<path d="M89.5319 187.63C89.5319 195.063 76.0615 216.579 76.0615 216.579C76.0615 216.579 62.591 195.034 62.591 187.63C62.5494 185.837 62.8669 184.055 63.525 182.386C64.1831 180.718 65.1684 179.198 66.423 177.915C67.6776 176.633 69.1763 175.614 70.8309 174.918C72.4854 174.222 74.2626 173.864 76.0578 173.864C77.8531 173.864 79.6302 174.222 81.2848 174.918C82.9394 175.614 84.4381 176.633 85.6927 177.915C86.9473 179.198 87.9327 180.718 88.5907 182.386C89.2488 184.055 89.5663 185.837 89.5247 187.63H89.5319Z" fill="#5B22FF"/>
<path d="M111.821 228.781C107.778 235.02 84.7496 245.789 84.7496 245.789C84.7496 245.789 85.1698 220.393 89.2132 214.155C91.1964 211.257 94.2347 209.249 97.6799 208.558C101.125 207.866 104.704 208.547 107.654 210.454C110.604 212.362 112.69 215.345 113.469 218.768C114.247 222.19 113.656 225.781 111.821 228.774V228.781Z" fill="#5B22FF"/>
<path d="M110.843 299.107C104.198 302.45 78.8802 300.142 78.8802 300.142C78.8802 300.142 92.0753 278.43 98.7199 275.086C101.899 273.563 105.55 273.346 108.888 274.481C112.226 275.616 114.985 278.014 116.573 281.158C118.16 284.303 118.451 287.944 117.381 291.3C116.311 294.655 113.966 297.458 110.85 299.107H110.843Z" fill="#5B22FF"/>
<path d="M98.1112 352.149C92.1332 356.564 66.7792 358.561 66.7792 358.561C66.7792 358.561 76.1122 334.939 82.0902 330.517C83.5111 329.449 85.1296 328.673 86.8523 328.234C88.5749 327.794 90.3677 327.699 92.1272 327.955C93.8867 328.211 95.5781 328.812 97.1038 329.724C98.6296 330.636 99.9594 331.84 101.017 333.268C102.074 334.696 102.838 336.318 103.265 338.042C103.691 339.766 103.771 341.558 103.501 343.313C103.231 345.068 102.616 346.753 101.691 348.269C100.766 349.786 99.5491 351.104 98.1112 352.149Z" fill="#5B22FF"/>
<path d="M56.4681 247.229C61.8012 252.404 86.6625 257.767 86.6625 257.767C86.6625 257.767 80.5758 233.109 75.2427 227.927C73.9847 226.647 72.4831 225.631 70.8262 224.939C69.1693 224.247 67.3905 223.892 65.5945 223.897C63.7985 223.902 62.0215 224.265 60.3681 224.965C58.7147 225.666 57.2182 226.69 55.9668 227.976C54.7153 229.263 53.7341 230.786 53.0808 232.457C52.4275 234.128 52.1154 235.913 52.1628 237.706C52.2102 239.499 52.6161 241.265 53.3567 242.899C54.0973 244.533 55.1577 246.003 56.4754 247.222L56.4681 247.229Z" fill="#5B22FF"/>
<path d="M42.3673 309.449C49.0119 312.792 74.3297 310.484 74.3297 310.484C74.3297 310.484 61.1346 288.772 54.49 285.428C51.3106 283.905 47.6601 283.688 44.3222 284.823C40.9844 285.959 38.2253 288.356 36.6374 291.5C35.0495 294.645 34.7593 298.286 35.8293 301.642C36.8992 304.997 39.244 307.8 42.36 309.449H42.3673Z" fill="#5B22FF"/>
<path d="M36.9689 371.806C42.9469 376.22 68.3009 378.218 68.3009 378.218C68.3009 378.218 58.968 354.588 52.9827 350.173C50.1087 348.085 46.525 347.216 43.0123 347.755C39.4996 348.295 36.3426 350.198 34.2291 353.052C32.1156 355.906 31.2168 359.478 31.7287 362.991C32.2405 366.504 34.1214 369.672 36.9617 371.806H36.9689Z" fill="#5B22FF"/>
<path opacity="0.25" d="M89.5319 187.63C89.5319 195.063 76.0615 216.579 76.0615 216.579C76.0615 216.579 62.591 195.034 62.591 187.63C62.5494 185.837 62.8669 184.055 63.525 182.386C64.1831 180.718 65.1684 179.198 66.423 177.915C67.6776 176.633 69.1763 175.614 70.8309 174.918C72.4854 174.222 74.2626 173.864 76.0578 173.864C77.8531 173.864 79.6302 174.222 81.2848 174.918C82.9394 175.614 84.4381 176.633 85.6927 177.915C86.9473 179.198 87.9327 180.718 88.5907 182.386C89.2488 184.055 89.5663 185.837 89.5247 187.63H89.5319Z" fill="black"/>
<path opacity="0.25" d="M111.821 228.781C107.778 235.02 84.7496 245.789 84.7496 245.789C84.7496 245.789 85.1698 220.393 89.2132 214.155C91.1964 211.257 94.2347 209.249 97.6799 208.558C101.125 207.866 104.704 208.547 107.654 210.454C110.604 212.362 112.69 215.345 113.469 218.768C114.247 222.19 113.656 225.781 111.821 228.774V228.781Z" fill="black"/>
<path opacity="0.25" d="M110.843 299.107C104.198 302.45 78.8802 300.142 78.8802 300.142C78.8802 300.142 92.0753 278.43 98.7199 275.086C101.899 273.563 105.55 273.346 108.888 274.481C112.226 275.616 114.985 278.014 116.573 281.158C118.16 284.303 118.451 287.944 117.381 291.3C116.311 294.655 113.966 297.458 110.85 299.107H110.843Z" fill="black"/>
<path opacity="0.25" d="M98.1112 352.149C92.1332 356.564 66.7792 358.561 66.7792 358.561C66.7792 358.561 76.1122 334.939 82.0902 330.517C83.5111 329.449 85.1296 328.673 86.8523 328.234C88.5749 327.794 90.3677 327.699 92.1272 327.955C93.8867 328.211 95.5781 328.812 97.1038 329.724C98.6296 330.636 99.9594 331.84 101.017 333.268C102.074 334.696 102.838 336.318 103.265 338.042C103.691 339.766 103.771 341.558 103.501 343.313C103.231 345.068 102.616 346.753 101.691 348.269C100.766 349.786 99.5491 351.104 98.1112 352.149Z" fill="black"/>
<path opacity="0.25" d="M56.4681 247.229C61.8012 252.404 86.6625 257.767 86.6625 257.767C86.6625 257.767 80.5758 233.109 75.2427 227.927C73.9847 226.647 72.4831 225.631 70.8262 224.939C69.1693 224.247 67.3905 223.892 65.5945 223.897C63.7985 223.902 62.0215 224.265 60.3681 224.965C58.7147 225.666 57.2182 226.69 55.9668 227.976C54.7153 229.263 53.7341 230.786 53.0808 232.457C52.4275 234.128 52.1154 235.913 52.1628 237.706C52.2102 239.499 52.6161 241.265 53.3567 242.899C54.0973 244.533 55.1577 246.003 56.4754 247.222L56.4681 247.229Z" fill="black"/>
<path opacity="0.25" d="M42.3673 309.449C49.0119 312.792 74.3297 310.484 74.3297 310.484C74.3297 310.484 61.1346 288.772 54.49 285.428C51.3106 283.905 47.6601 283.688 44.3222 284.823C40.9844 285.959 38.2253 288.356 36.6374 291.5C35.0495 294.645 34.7593 298.286 35.8293 301.642C36.8992 304.997 39.244 307.8 42.36 309.449H42.3673Z" fill="black"/>
<path opacity="0.25" d="M36.9689 371.806C42.9469 376.22 68.3009 378.218 68.3009 378.218C68.3009 378.218 58.968 354.588 52.9827 350.173C50.1087 348.085 46.525 347.216 43.0123 347.755C39.4996 348.295 36.3426 350.198 34.2291 353.052C32.1156 355.906 31.2168 359.478 31.7287 362.991C32.2405 366.504 34.1214 369.672 36.9617 371.806H36.9689Z" fill="black"/>
<path d="M631.741 393.67C631.741 393.67 613.865 333.05 635.096 288.432C644.009 269.709 646.965 248.684 642.849 228.362C640.881 218.713 638.031 209.265 634.335 200.136" stroke="#535461" stroke-width="2" stroke-miterlimit="10"/>
<path d="M647.545 171.976C647.545 179.409 634.074 200.925 634.074 200.925C634.074 200.925 620.604 179.38 620.604 171.976C620.562 170.183 620.88 168.4 621.538 166.732C622.196 165.064 623.181 163.544 624.436 162.261C625.691 160.979 627.189 159.96 628.844 159.264C630.498 158.568 632.276 158.21 634.071 158.21C635.866 158.21 637.643 158.568 639.298 159.264C640.952 159.96 642.451 160.979 643.706 162.261C644.96 163.544 645.946 165.064 646.604 166.732C647.262 168.4 647.579 170.183 647.538 171.976H647.545Z" fill="#5B22FF"/>
<path d="M669.805 213.127C665.761 219.366 642.733 230.135 642.733 230.135C642.733 230.135 643.154 204.739 647.197 198.501C648.136 196.97 649.372 195.642 650.832 194.595C652.292 193.548 653.948 192.804 655.701 192.407C657.453 192.009 659.268 191.966 661.038 192.279C662.808 192.593 664.497 193.257 666.006 194.233C667.514 195.208 668.813 196.476 669.823 197.96C670.834 199.445 671.537 201.116 671.891 202.877C672.245 204.637 672.243 206.45 671.885 208.209C671.526 209.968 670.819 211.638 669.805 213.12V213.127Z" fill="#5B22FF"/>
<path d="M668.834 283.452C662.189 286.796 636.871 284.487 636.871 284.487C636.871 284.487 650.066 262.775 656.711 259.432C659.89 257.909 663.541 257.691 666.879 258.827C670.217 259.962 672.976 262.359 674.564 265.504C676.152 268.648 676.442 272.289 675.372 275.645C674.302 279.001 671.957 281.804 668.841 283.452H668.834Z" fill="#5B22FF"/>
<path d="M656.102 336.495C650.124 340.909 624.77 342.907 624.77 342.907C624.77 342.907 634.103 319.284 640.081 314.862C642.955 312.774 646.539 311.905 650.052 312.444C653.564 312.984 656.721 314.887 658.835 317.741C660.948 320.595 661.847 324.167 661.335 327.68C660.823 331.193 658.943 334.361 656.102 336.495Z" fill="#5B22FF"/>
<path d="M614.452 231.553C619.785 236.728 644.646 242.091 644.646 242.091C644.646 242.091 638.56 217.433 633.226 212.252C630.664 209.765 627.217 208.397 623.644 208.448C620.072 208.5 616.666 209.967 614.177 212.527C611.687 215.086 610.317 218.529 610.369 222.097C610.42 225.665 611.889 229.067 614.452 231.553Z" fill="#5B22FF"/>
<path d="M600.38 293.794C607.025 297.138 632.342 294.829 632.342 294.829C632.342 294.829 619.147 273.117 612.503 269.774C609.326 268.274 605.689 268.073 602.366 269.214C599.043 270.355 596.298 272.747 594.717 275.881C593.135 279.015 592.842 282.642 593.9 285.988C594.958 289.335 597.284 292.136 600.38 293.794Z" fill="#5B22FF"/>
<path d="M594.953 356.151C600.931 360.566 626.285 362.564 626.285 362.564C626.285 362.564 616.952 338.941 610.974 334.519C608.1 332.431 604.516 331.562 601.003 332.101C597.491 332.64 594.334 334.544 592.22 337.398C590.107 340.252 589.208 343.824 589.72 347.337C590.232 350.849 592.113 354.018 594.953 356.151Z" fill="#5B22FF"/>
<path d="M551.107 387.771C551.107 387.771 541.498 355.203 552.911 331.219C557.76 321.193 559.222 309.867 557.078 298.94C556.02 293.762 554.489 288.692 552.505 283.792" stroke="#535461" stroke-width="2" stroke-miterlimit="10"/>
<path d="M559.599 268.63C559.599 272.625 552.353 284.198 552.353 284.198C552.353 284.198 545.107 272.618 545.107 268.63C545.107 266.711 545.87 264.87 547.229 263.513C548.588 262.155 550.431 261.393 552.353 261.393C554.275 261.393 556.118 262.155 557.477 263.513C558.836 264.87 559.599 266.711 559.599 268.63Z" fill="#5B22FF"/>
<path d="M571.563 290.748C569.389 294.098 557.012 299.888 557.012 299.888C557.012 299.888 557.237 286.239 559.411 282.888C559.905 282.043 560.566 281.308 561.353 280.726C562.14 280.144 563.037 279.727 563.989 279.5C564.942 279.274 565.931 279.243 566.896 279.409C567.861 279.575 568.783 279.935 569.605 280.467C570.427 280.998 571.132 281.691 571.679 282.503C572.225 283.314 572.601 284.228 572.784 285.189C572.967 286.15 572.953 287.138 572.743 288.093C572.533 289.049 572.132 289.952 571.563 290.748Z" fill="#5B22FF"/>
<path d="M571.041 328.534C567.468 330.328 553.86 329.091 553.86 329.091C553.86 329.091 560.954 317.424 564.519 315.629C566.222 314.861 568.155 314.779 569.917 315.401C571.678 316.022 573.131 317.299 573.972 318.965C574.814 320.631 574.978 322.557 574.432 324.341C573.886 326.125 572.671 327.63 571.041 328.541V328.534Z" fill="#5B22FF"/>
<path d="M564.193 357.041C560.976 359.415 547.353 360.486 547.353 360.486C547.353 360.486 552.368 347.792 555.585 345.418C557.133 344.387 559.019 343.99 560.852 344.309C562.685 344.629 564.325 345.64 565.432 347.135C566.539 348.629 567.027 350.491 566.797 352.335C566.566 354.18 565.634 355.865 564.193 357.041Z" fill="#5B22FF"/>
<path d="M541.817 300.663C544.716 303.442 558.041 306.33 558.041 306.33C558.041 306.33 554.773 293.078 551.904 290.299C551.234 289.584 550.425 289.013 549.528 288.62C548.63 288.226 547.662 288.019 546.681 288.01C545.701 288.001 544.729 288.191 543.825 288.568C542.92 288.946 542.102 289.502 541.419 290.204C540.736 290.907 540.202 291.74 539.851 292.654C539.5 293.568 539.338 294.544 539.375 295.522C539.413 296.501 539.648 297.461 540.068 298.346C540.488 299.231 541.083 300.022 541.817 300.67V300.663Z" fill="#5B22FF"/>
<path d="M534.238 334.099C537.81 335.894 551.418 334.656 551.418 334.656C551.418 334.656 544.324 322.99 540.759 321.195C539.057 320.427 537.123 320.345 535.362 320.966C533.601 321.588 532.148 322.865 531.306 324.531C530.465 326.196 530.3 328.122 530.846 329.907C531.393 331.691 532.608 333.195 534.238 334.106V334.099Z" fill="#5B22FF"/>
<path d="M531.34 367.615C534.557 369.989 548.179 371.06 548.179 371.06C548.179 371.06 543.136 358.359 539.948 355.985C538.4 354.933 536.504 354.521 534.658 354.835C532.812 355.148 531.16 356.163 530.047 357.667C528.934 359.171 528.446 361.047 528.688 362.901C528.929 364.756 529.879 366.445 531.34 367.615Z" fill="#5B22FF"/>
<path opacity="0.1" d="M178.789 7.50758H173.804C174.275 7.52905 174.746 7.45483 175.188 7.28939C175.63 7.12394 176.034 6.87072 176.376 6.54501C176.717 6.21931 176.989 5.82789 177.174 5.39438C177.36 4.96088 177.455 4.49429 177.455 4.02282C177.455 3.55134 177.36 3.08476 177.174 2.65125C176.989 2.21775 176.717 1.82631 176.376 1.50061C176.034 1.1749 175.63 0.921689 175.188 0.756247C174.746 0.590805 174.275 0.516573 173.804 0.538043H133.421C132.524 0.57892 131.676 0.963917 131.055 1.61296C130.434 2.26201 130.088 3.12514 130.088 4.02282C130.088 4.92049 130.434 5.78361 131.055 6.43266C131.676 7.0817 132.524 7.4667 133.421 7.50758H138.407C137.935 7.48611 137.464 7.56034 137.022 7.72578C136.58 7.89123 136.176 8.14445 135.835 8.47016C135.494 8.79586 135.222 9.18728 135.036 9.62079C134.851 10.0543 134.755 10.5209 134.755 10.9924C134.755 11.4638 134.851 11.9304 135.036 12.3639C135.222 12.7974 135.494 13.1889 135.835 13.5146C136.176 13.8403 136.58 14.0935 137.022 14.2589C137.464 14.4244 137.935 14.4986 138.407 14.4771H131.429C130.957 14.4557 130.486 14.5299 130.044 14.6953C129.602 14.8608 129.198 15.114 128.857 15.4397C128.516 15.7654 128.244 16.1568 128.058 16.5903C127.873 17.0238 127.777 17.4904 127.777 17.9619C127.777 18.4334 127.873 18.9 128.058 19.3335C128.244 19.767 128.516 20.1584 128.857 20.4841C129.198 20.8098 129.602 21.063 130.044 21.2285C130.486 21.3939 130.957 21.4681 131.429 21.4467H171.811C172.283 21.4681 172.754 21.3939 173.196 21.2285C173.638 21.063 174.042 20.8098 174.383 20.4841C174.724 20.1584 174.996 19.767 175.181 19.3335C175.367 18.9 175.463 18.4334 175.463 17.9619C175.463 17.4904 175.367 17.0238 175.181 16.5903C174.996 16.1568 174.724 15.7654 174.383 15.4397C174.042 15.114 173.638 14.8608 173.196 14.6953C172.754 14.5299 172.283 14.4557 171.811 14.4771H178.789C179.261 14.4986 179.732 14.4244 180.174 14.2589C180.616 14.0935 181.02 13.8403 181.361 13.5146C181.702 13.1889 181.974 12.7974 182.159 12.3639C182.345 11.9304 182.441 11.4638 182.441 10.9924C182.441 10.5209 182.345 10.0543 182.159 9.62079C181.974 9.18728 181.702 8.79586 181.361 8.47016C181.02 8.14445 180.616 7.89123 180.174 7.72578C179.732 7.56034 179.261 7.48611 178.789 7.50758Z" fill="#252223"/>
<path opacity="0.1" d="M357.042 95.0791H352.057C352.529 95.1006 353 95.0264 353.442 94.8609C353.884 94.6955 354.288 94.4423 354.629 94.1166C354.97 93.7909 355.242 93.3994 355.428 92.9659C355.613 92.5324 355.709 92.0658 355.709 91.5943C355.709 91.1229 355.613 90.6563 355.428 90.2228C355.242 89.7893 354.97 89.3979 354.629 89.0722C354.288 88.7464 353.884 88.4932 353.442 88.3278C353 88.1623 352.529 88.0881 352.057 88.1096H311.675C310.777 88.1505 309.93 88.5355 309.309 89.1845C308.688 89.8336 308.341 90.6967 308.341 91.5943C308.341 92.492 308.688 93.3552 309.309 94.0042C309.93 94.6533 310.777 95.0382 311.675 95.0791H316.66C316.189 95.0577 315.718 95.1319 315.276 95.2973C314.834 95.4628 314.43 95.716 314.088 96.0417C313.747 96.3674 313.475 96.7588 313.29 97.1923C313.104 97.6258 313.008 98.0924 313.008 98.5639C313.008 99.0354 313.104 99.502 313.29 99.9355C313.475 100.369 313.747 100.76 314.088 101.086C314.43 101.412 314.834 101.665 315.276 101.83C315.718 101.996 316.189 102.07 316.66 102.049H309.682C309.211 102.027 308.74 102.101 308.298 102.267C307.856 102.432 307.452 102.686 307.11 103.011C306.769 103.337 306.497 103.728 306.312 104.162C306.126 104.595 306.031 105.062 306.031 105.533C306.031 106.005 306.126 106.471 306.312 106.905C306.497 107.339 306.769 107.73 307.11 108.056C307.452 108.381 307.856 108.635 308.298 108.8C308.74 108.965 309.211 109.04 309.682 109.018H350.065C350.536 109.04 351.007 108.965 351.449 108.8C351.891 108.635 352.295 108.381 352.636 108.056C352.978 107.73 353.249 107.339 353.435 106.905C353.62 106.471 353.716 106.005 353.716 105.533C353.716 105.062 353.62 104.595 353.435 104.162C353.249 103.728 352.978 103.337 352.636 103.011C352.295 102.686 351.891 102.432 351.449 102.267C351.007 102.101 350.536 102.027 350.065 102.049H357.042C357.514 102.07 357.985 101.996 358.427 101.83C358.869 101.665 359.273 101.412 359.614 101.086C359.956 100.76 360.227 100.369 360.413 99.9355C360.598 99.502 360.694 99.0354 360.694 98.5639C360.694 98.0924 360.598 97.6258 360.413 97.1923C360.227 96.7588 359.956 96.3674 359.614 96.0417C359.273 95.716 358.869 95.4628 358.427 95.2973C357.985 95.1319 357.514 95.0577 357.042 95.0791Z" fill="#252223"/>
<path d="M384.23 383.125H384.389C384.389 383.125 358.963 313.335 351.84 303.876C351.84 303.876 344.384 299.476 344.724 292.028L335.572 247.678C335.572 247.678 335.71 247.541 335.942 247.287L336.138 247.07L336.362 246.81C337.582 245.362 338.603 243.758 339.398 242.04L339.543 241.707C339.884 240.93 340.169 240.129 340.398 239.312C340.714 239.425 341.048 239.474 341.383 239.457C341.718 239.439 342.045 239.355 342.347 239.21C342.347 239.21 342.347 238.972 342.347 238.545C342.347 238.545 342.26 235.917 342.253 231.807C342.253 230.663 342.253 229.418 342.253 228.094C342.536 227.073 342.775 226.002 342.978 224.859L342.608 224.685V224.519L342.297 224.374C342.55 214.64 343.376 202.199 345.76 193.724C345.842 193.425 345.929 193.128 346.021 192.834C348.84 183.577 348.92 172.28 349.644 162.726C350.207 163.927 350.691 165.162 351.093 166.425C351.45 166.023 351.863 165.675 352.318 165.39L355.158 188.093V214.871C355.158 214.871 350.412 249.408 365.303 242.974C380.194 236.54 369.368 212.838 369.368 212.838C369.368 212.838 369.368 199.637 371.404 192.863C372.745 188.404 371.882 173.988 371.129 164.637C372.578 164.89 373.433 165.093 373.433 165.093C373.763 163.736 373.911 162.342 373.875 160.946C374.187 145.335 354.912 120.185 347.065 110.589C344.828 107.163 341.699 104.411 338.014 102.628L322.935 95.3325C322.935 95.3325 315.812 93.5955 313.037 88.0951C313.037 88.001 312.986 87.907 312.965 87.8129C313.279 87.673 313.588 87.521 313.892 87.3569C316.195 86.2504 318.212 84.6311 319.79 82.6237C323 78.5491 324.537 73.4468 326 68.4747C327.725 62.627 329.464 56.6562 329.232 50.5624C329 44.4685 326.435 38.1359 321.261 34.9008C316.841 32.1361 310.675 31.615 307.929 27.1858C307.204 25.9916 306.74 24.5731 305.755 23.6106C305.765 23.4118 305.704 23.216 305.581 23.059C305.459 22.9021 305.284 22.7947 305.088 22.7566L297.494 21.2657C297.388 21.2446 297.278 21.2448 297.171 21.2661C297.065 21.2875 296.964 21.3296 296.873 21.3901C296.783 21.4507 296.706 21.5283 296.646 21.6187C296.586 21.7092 296.544 21.8105 296.523 21.917V22.0256C289.732 22.2138 283.067 23.9045 277.01 26.9759C274.858 28.0142 272.793 29.2244 270.836 30.5946C268.046 32.5631 265.3 35.1758 264.901 38.5556C264.706 40.2419 265.112 41.9717 264.771 43.6218C263.851 48.0438 257.916 50.9242 258.786 55.3607C259.373 58.3714 262.786 59.6669 265.981 59.7031C265.092 62.8771 264.866 66.1997 265.316 69.4647C265.767 72.7297 266.885 75.8673 268.601 78.6826C270.316 81.4979 272.594 83.9308 275.29 85.8301C277.987 87.7294 281.046 89.0547 284.277 89.7235C286.602 92.9914 288.638 96.4541 290.364 100.073C286.458 103.778 278.278 112.376 283.292 115.271L272.858 141.022L273.872 167.561L269.474 171.484L270.437 172.685C265.51 178.417 254.105 190.945 245.764 194.281C244.564 194.763 243.401 195.333 242.286 195.989C240.763 196.955 239.068 197.618 237.294 197.943C236.519 198.028 235.753 198.178 235.004 198.392L233.011 194.267C232.842 193.915 232.605 193.601 232.313 193.341C232.022 193.081 231.682 192.882 231.313 192.753C230.944 192.625 230.554 192.57 230.164 192.593C229.774 192.615 229.392 192.714 229.041 192.884L227.816 193.471L224.918 194.867L223.707 195.454L222.794 195.895C222.086 196.237 221.542 196.846 221.282 197.589C221.023 198.331 221.069 199.146 221.41 199.854L223.823 204.848C220.396 207.866 218.715 211.47 223.389 214.828C225.183 216.14 227.36 216.827 229.584 216.782L231.033 219.814C231.203 220.166 231.44 220.48 231.732 220.74C232.023 221 232.363 221.2 232.732 221.328C233.1 221.456 233.491 221.511 233.881 221.488C234.271 221.466 234.653 221.367 235.004 221.197L237.127 220.169L241.243 218.186C241.595 218.017 241.91 217.78 242.17 217.489C242.43 217.197 242.63 216.858 242.758 216.49C242.887 216.121 242.941 215.731 242.919 215.342C242.896 214.952 242.797 214.571 242.627 214.22L241.424 211.723C244.117 209.633 246.584 207.268 248.786 204.667C248.786 204.667 254.974 200.795 258.619 199.926C261.032 199.355 269.488 193.804 274.734 190.286L276.227 229.368C275.898 229.876 275.514 230.347 275.082 230.772L276.249 229.947V230.236C276.092 230.424 275.925 230.603 275.749 230.772L276.256 230.41V230.88C276.091 231.079 275.914 231.267 275.727 231.445L276.263 231.068L276.481 235.172L279.031 230.945L279.191 235.172L279.785 234.188C272.626 246.339 263.3 264.23 258.315 282.229C258.315 282.229 250.518 295.77 251.532 309.651L237.294 378.406L237.569 378.507C232.932 381.851 223.157 387.981 213.57 388.227C213.57 388.227 190.52 387.547 196.962 392.627C203.404 397.708 260.691 405.155 260.691 405.155L262.865 388.039L263.372 388.227C263.372 388.227 263.372 388.133 263.372 387.959L264.097 388.227C264.097 388.227 262.713 379.716 267.785 374.975C272.858 370.235 284.734 322.143 283.727 314.71C283.727 314.71 292.828 291.992 304.219 273.877L317.609 308.269L332.522 333.998C332.522 333.998 352.361 378.059 351.724 387.872C347.557 392.939 340.13 400.9 334.558 400.69C334.558 400.69 311.849 405.09 327.442 409.157C343.036 413.225 388.795 398.012 388.795 398.012L384.23 383.125ZM284.959 225.597L285.096 225.517C284.372 226.61 283.647 227.819 282.821 229.136L284.959 225.597Z" fill="url(#paint0_linear)"/>
<path d="M275.082 230.786C274.524 231.192 274.22 231.416 274.22 231.416C274.536 231.249 274.827 231.037 275.082 230.786Z" fill="url(#paint1_linear)"/>
<path d="M275.756 231.467C275.198 231.872 274.894 232.096 274.894 232.096C275.21 231.929 275.501 231.717 275.756 231.467Z" fill="url(#paint2_linear)"/>
<path d="M275.756 230.786C275.198 231.192 274.894 231.416 274.894 231.416C275.21 231.249 275.501 231.037 275.756 230.786Z" fill="url(#paint3_linear)"/>
<path d="M353.325 379.557C353.325 379.557 341.427 396.391 333.493 396.058C333.493 396.058 311.349 400.35 326.551 404.308C341.753 408.267 386.367 393.416 386.367 393.416L381.063 376.155L353.325 379.557Z" fill="#333333"/>
<path d="M300.117 262.674L316.972 305.917L331.551 331.038C331.551 331.038 351.543 375.431 350.224 384.015L382.107 378.898C382.107 378.898 357.318 310.867 350.383 301.661C350.383 301.661 343.137 297.37 343.442 290.082L334.522 246.839C334.522 246.839 343.217 238.472 338.348 228.022C338.101 227.486 337.816 226.946 337.493 226.4C330.826 215.175 305.74 221.421 305.74 221.421L300.117 262.674Z" fill="#535461"/>
<path opacity="0.03" d="M300.117 262.674L316.972 305.917L331.551 331.038C331.551 331.038 351.543 375.431 350.224 384.015L382.107 378.898C382.107 378.898 357.318 310.867 350.383 301.661C350.383 301.661 343.137 297.37 343.442 290.082L334.522 246.839C334.522 246.839 343.217 238.472 338.348 228.022C338.101 227.486 337.816 226.946 337.493 226.4C330.826 215.175 305.74 221.421 305.74 221.421L300.117 262.674Z" fill="black"/>
<g opacity="0.1">
<path opacity="0.1" d="M350.354 301.661C350.354 301.661 343.108 297.37 343.413 290.082L334.493 246.839C334.493 246.839 343.188 238.472 338.319 228.022C338.072 227.486 337.787 226.946 337.464 226.4C334.261 220.958 326.696 219.626 319.761 219.706C326.413 219.764 333.413 221.219 336.471 226.4C336.795 226.946 337.08 227.486 337.326 228.022C342.174 238.501 333.5 246.839 333.5 246.839L342.42 290.103C342.087 297.341 349.362 301.683 349.362 301.683C356.303 310.925 381.085 378.92 381.085 378.92L350.202 383.877C350.202 383.928 350.202 383.986 350.202 384.037L382.085 378.92C382.085 378.92 357.296 310.903 350.354 301.661Z" fill="black"/>
</g>
<path d="M241.627 372.298C241.627 372.298 228.41 383.523 215.541 383.877C215.541 383.877 193.078 383.219 199.346 388.169C205.614 393.12 261.474 400.386 261.474 400.386L263.959 381.069L241.627 372.298Z" fill="#333333"/>
<g opacity="0.1">
<path opacity="0.1" d="M290.205 218.809C290.205 218.809 268.394 249.509 259.771 280.536C259.771 280.536 252.17 293.737 253.163 307.27L239.308 374.281L264.756 383.856C264.756 383.856 263.438 375.605 268.379 370.981C273.321 366.356 284.901 319.487 283.915 312.228C283.915 312.228 299.777 272.618 315.638 257.101C331.5 241.584 339.398 238.009 341.724 224.613C341.739 224.613 304.414 206.592 290.205 218.809Z" fill="black"/>
</g>
<path d="M289.524 218.809C289.524 218.809 267.713 249.509 259.09 280.536C259.09 280.536 251.489 293.737 252.482 307.27L238.598 374.281L264.046 383.856C264.046 383.856 262.728 375.605 267.669 370.981C272.611 366.356 284.19 319.487 283.205 312.228C283.205 312.228 299.067 272.618 314.928 257.101C330.79 241.584 338.688 238.009 341.014 224.613C341.079 224.613 303.755 206.592 289.524 218.809Z" fill="#535461"/>
<g opacity="0.1">
<path opacity="0.1" d="M303.632 214.235C320.015 214.43 340.42 224.28 340.42 224.28C338.087 237.676 330.196 241.251 314.334 256.768C298.472 272.285 282.604 311.888 282.604 311.888C283.596 319.125 272.032 366.023 267.068 370.64C262.72 374.664 263.199 381.431 263.38 383.125L264.423 383.516C264.423 383.516 263.104 375.265 268.046 370.64C272.988 366.016 284.589 319.125 283.596 311.888C283.596 311.888 299.458 272.278 315.32 256.761C331.181 241.244 339.079 237.669 341.405 224.273C341.413 224.316 320.167 214.032 303.632 214.235Z" fill="black"/>
</g>
<path d="M273.35 170.948C273.35 170.948 257.576 190.569 246.931 194.831C245.761 195.3 244.627 195.857 243.54 196.496C242.054 197.437 240.401 198.083 238.671 198.399C237.397 198.523 236.152 198.85 234.982 199.369C229.446 201.917 216.679 208.778 225.106 214.857C235.678 222.449 249.895 204.956 249.895 204.956C249.895 204.956 255.931 201.178 259.481 200.332C263.032 199.485 279.299 188.13 279.299 188.13L273.35 170.948Z" fill="#FDA57D"/>
<path d="M276.321 166.982L270.046 172.598L279.299 184.149L276.321 166.982Z" fill="#4D8AF0"/>
<g opacity="0.1">
<path opacity="0.1" d="M276.321 166.982L270.046 172.598L279.299 184.149L276.321 166.982Z" fill="black"/>
</g>
<path d="M292.234 101.282C292.234 101.282 277.191 114.157 283.488 117.783L273.343 142.867L276.843 234.629L291.183 210.862L281.386 159.368C281.386 159.368 278.589 128.668 286.632 121.409L294.328 106.21L292.234 101.282Z" fill="#4D8AF0"/>
<g opacity="0.1">
<path opacity="0.1" d="M294.878 101.282C294.878 101.282 279.836 114.157 286.132 117.783L275.988 142.867L279.488 234.629L293.828 210.862L284.031 159.368C284.031 159.368 281.234 128.668 289.277 121.409L296.973 106.21L294.878 101.282Z" fill="black"/>
</g>
<path d="M280.618 87.7622C280.618 87.7622 292.849 102.613 292.516 111.197C292.183 119.78 315.653 96.3457 315.653 96.3457C315.653 96.3457 306.733 85.4535 309.044 73.91C311.356 62.3664 280.618 87.7622 280.618 87.7622Z" fill="#FDA57D"/>
<path d="M350.354 162.365L353.659 188.774V214.828C353.659 214.828 349.028 248.496 363.571 242.228C378.114 235.961 367.535 212.852 367.535 212.852C367.535 212.852 367.535 199.977 369.52 193.376C371.506 186.776 368.506 157.733 368.506 157.733L350.354 162.365Z" fill="#FDA57D"/>
<path d="M305.074 99.9788C305.074 99.9788 296.154 108.562 291.523 105.588L285.176 121.343C281.296 130.974 279.537 141.326 280.017 151.697L282.277 211.216L292.19 209.899L295.494 153.448L300.451 119.121L305.074 99.9788Z" fill="#F2F2F2"/>
<g opacity="0.1">
<path opacity="0.1" d="M312.515 90.9032C312.515 90.9032 300.777 98.9873 297.494 105.921C297.494 105.921 297.161 113.513 294.523 116.813C291.886 120.113 289.234 136.621 288.574 156.423C287.915 176.224 284.951 202.633 284.951 202.633C284.951 202.633 279.995 228.376 274.705 231.018C274.705 231.018 299.161 212.534 311.059 218.801C322.957 225.069 336.507 240.26 340.471 237.944C340.471 237.944 339.514 208.995 343.855 193.586C343.937 193.292 344.021 193.005 344.108 192.725C348.739 177.527 345.76 156.748 351.05 147.854C351.05 147.854 351.05 131.722 347.999 119.672C347.211 116.595 345.758 113.728 343.743 111.271C341.727 108.814 339.198 106.828 336.333 105.45L321.638 98.3432C321.638 98.3432 313.834 97.1707 312.515 90.9032Z" fill="black"/>
</g>
<g opacity="0.1">
<path opacity="0.1" d="M312.515 90.9032C312.515 90.9032 301.443 99.6531 298.139 106.579C298.139 106.579 297.806 114.171 295.168 117.471C292.531 120.772 289.879 137.28 289.219 157.081C288.56 176.883 285.596 203.292 285.596 203.292C285.596 203.292 280.64 229.035 275.35 231.676C275.35 231.676 299.806 213.192 311.704 219.46C323.602 225.727 337.152 240.918 341.116 238.603C341.116 238.603 340.159 209.653 344.499 194.245C344.582 193.951 344.666 193.664 344.753 193.384C349.383 178.185 346.405 157.407 351.695 148.512C351.695 148.512 351.695 132.38 348.644 120.33C347.856 117.253 346.403 114.386 344.387 111.93C342.372 109.473 339.843 107.486 336.978 106.109L322.283 99.0018C322.283 99.0018 313.834 97.1707 312.515 90.9032Z" fill="black"/>
</g>
<path d="M312.349 90.7368C312.349 90.7368 301.443 98.9874 298.139 105.935C298.139 105.935 297.806 113.527 295.168 116.827C292.531 120.128 289.879 136.636 289.219 156.437C288.56 176.239 285.596 202.648 285.596 202.648C285.596 202.648 280.64 228.391 275.35 231.032C275.35 231.032 299.806 212.548 311.704 218.816C323.602 225.083 337.13 240.238 341.101 237.951C341.101 237.951 340.145 209.002 344.485 193.594C344.567 193.299 344.652 193.012 344.739 192.732C349.369 177.534 346.391 156.756 351.68 147.861C351.68 147.861 351.68 131.729 348.63 119.679C347.841 116.602 346.388 113.735 344.373 111.278C342.358 108.822 339.829 106.835 336.964 105.458L322.269 98.3505C322.269 98.3505 314.827 96.5122 312.349 90.7368Z" fill="#4D8AF0"/>
<g opacity="0.1">
<path opacity="0.1" d="M342.587 110.046C342.587 110.046 376.129 148.172 371.506 166.323C371.506 166.323 354.318 162.365 349.695 167.641C349.695 167.641 346.072 155.424 335.152 148.498C324.232 141.572 314.16 97.1707 342.587 110.046Z" fill="black"/>
</g>
<path d="M342.587 109.387C342.587 109.387 376.129 147.514 371.506 165.665C371.506 165.665 354.318 161.706 349.695 166.982C349.695 166.982 346.072 154.765 335.152 147.839C324.232 140.913 314.16 96.5121 342.587 109.387Z" fill="#4D8AF0"/>
<g opacity="0.1">
<path opacity="0.1" d="M309.871 81.3283C309.349 78.665 309.784 78.4334 310.363 75.5385C312.675 63.9587 281.944 89.4052 281.944 89.4052C281.944 89.4052 283.654 91.4823 285.777 94.5364C287.344 94.859 288.939 95.0215 290.538 95.0214C298.944 95.0286 305.719 87.9432 309.871 81.3283Z" fill="black"/>
</g>
<path d="M289.212 93.3712C302.17 93.3712 312.675 82.8793 312.675 69.9368C312.675 56.9943 302.17 46.5023 289.212 46.5023C276.254 46.5023 265.749 56.9943 265.749 69.9368C265.749 82.8793 276.254 93.3712 289.212 93.3712Z" fill="#FDA57D"/>
<g opacity="0.1">
<path opacity="0.1" d="M268.133 63.5245C264.677 63.9877 260.271 62.8008 259.605 59.421C258.764 55.0786 264.546 52.2922 265.445 47.9788C265.778 46.3576 265.38 44.6713 265.575 43.0357C265.967 39.7282 268.64 37.1879 271.372 35.2628C279.993 29.2235 290.479 26.4334 300.965 27.3886C302.275 27.4052 303.55 27.808 304.632 28.5465C305.769 29.4801 306.211 31 306.987 32.252C309.668 36.5944 315.682 37.0793 319.986 39.7716C325.058 42.9199 327.529 49.1005 327.754 55.0351C327.979 60.9698 326.305 66.7958 324.602 72.4988C323.153 77.3478 321.703 82.3271 318.544 86.2932C315.385 90.2592 310.218 93.0383 305.298 91.8442C307.552 90.223 305.914 86.4596 303.472 85.1352C301.03 83.8107 298.002 83.5864 295.915 81.7626C293.828 79.9388 293.205 76.957 292.524 74.243C291.668 70.8197 290.422 67.3458 287.922 64.8345C283.002 59.9493 274.155 62.7139 268.133 63.5245Z" fill="black"/>
</g>
<path d="M268.793 63.1988C265.336 63.662 260.931 62.4751 260.264 59.0953C259.423 54.7529 265.206 51.9665 266.104 47.6531C266.438 46.0319 266.039 44.3456 266.235 42.71C266.626 39.4025 269.3 36.8622 272.032 34.9371C280.652 28.8979 291.138 26.1078 301.624 27.0629C302.934 27.0795 304.21 27.4823 305.291 28.2208C306.429 29.1545 306.871 30.6743 307.646 31.9264C310.327 36.2688 316.341 36.7537 320.645 39.4459C325.718 42.5942 328.189 48.7748 328.413 54.7095C328.638 60.6441 326.964 66.4701 325.261 72.1731C323.812 77.0221 322.363 82.0014 319.203 85.9675C316.044 89.9335 310.878 92.7127 305.958 91.5185C308.211 89.8973 306.574 86.1339 304.132 84.8095C301.69 83.4851 298.661 83.2607 296.574 81.4369C294.487 79.6131 293.871 76.6313 293.147 73.9173C292.292 70.4941 291.045 67.0201 288.545 64.5088C283.669 59.6164 274.814 62.3883 268.793 63.1988Z" fill="#72351C"/>
<g opacity="0.1">
<path opacity="0.1" d="M292.35 81.9869C298.737 81.9869 303.914 76.8155 303.914 70.4362C303.914 64.0568 298.737 58.8854 292.35 58.8854C285.962 58.8854 280.785 64.0568 280.785 70.4362C280.785 76.8155 285.962 81.9869 292.35 81.9869Z" fill="black"/>
</g>
<path opacity="0.05" d="M303.571 38.4318L294.489 36.6604L294.425 36.9871L303.507 38.7585L303.571 38.4318Z" fill="black"/>
<path d="M226.97 195.236L226.964 195.239C224.17 196.584 222.997 199.937 224.344 202.727L231.38 217.304C232.727 220.095 236.084 221.266 238.878 219.921L238.884 219.918C241.678 218.572 242.851 215.22 241.504 212.429L234.467 197.852C233.12 195.062 229.764 193.891 226.97 195.236Z" fill="#CBDAE3"/>
<g opacity="0.1">
<path opacity="0.1" d="M226.97 195.236L226.964 195.239C224.17 196.584 222.997 199.937 224.344 202.727L231.38 217.304C232.727 220.095 236.084 221.266 238.878 219.921L238.884 219.918C241.678 218.572 242.851 215.22 241.504 212.429L234.467 197.852C233.12 195.062 229.764 193.891 226.97 195.236Z" fill="black"/>
</g>
<path d="M235.729 197.43C234.342 194.556 230.886 193.35 228.009 194.735C225.133 196.121 223.925 199.573 225.312 202.446L232.204 216.723C233.59 219.596 237.047 220.802 239.923 219.417C242.8 218.032 244.008 214.58 242.621 211.707L235.729 197.43Z" fill="#CBDAE3"/>
<path d="M232.798 194.626L224.927 198.417L233.968 217.146L241.839 213.356L232.798 194.626Z" fill="#F2F2F2"/>
<path d="M239.634 218.45C240.128 218.213 240.272 217.489 239.956 216.833C239.64 216.178 238.983 215.84 238.489 216.077C237.995 216.315 237.851 217.039 238.167 217.695C238.484 218.35 239.141 218.688 239.634 218.45Z" fill="#F2F2F2"/>
<defs>
<linearGradient id="paint0_linear" x1="195.796" y1="215.559" x2="388.795" y2="215.559" gradientUnits="userSpaceOnUse">
<stop stop-color="#808080" stop-opacity="0.25"/>
<stop offset="0.54" stop-color="#808080" stop-opacity="0.12"/>
<stop offset="1" stop-color="#808080" stop-opacity="0.1"/>
</linearGradient>
<linearGradient id="paint1_linear" x1="721.642" y1="524.439" x2="722.668" y2="524.439" gradientUnits="userSpaceOnUse">
<stop stop-color="#808080" stop-opacity="0.25"/>
<stop offset="0.54" stop-color="#808080" stop-opacity="0.12"/>
<stop offset="1" stop-color="#808080" stop-opacity="0.1"/>
</linearGradient>
<linearGradient id="paint2_linear" x1="723.118" y1="525.705" x2="724.153" y2="525.705" gradientUnits="userSpaceOnUse">
<stop stop-color="#808080" stop-opacity="0.25"/>
<stop offset="0.54" stop-color="#808080" stop-opacity="0.12"/>
<stop offset="1" stop-color="#808080" stop-opacity="0.1"/>
</linearGradient>
<linearGradient id="paint3_linear" x1="723.118" y1="524.44" x2="724.153" y2="524.44" gradientUnits="userSpaceOnUse">
<stop stop-color="#808080" stop-opacity="0.25"/>
<stop offset="0.54" stop-color="#808080" stop-opacity="0.12"/>
<stop offset="1" stop-color="#808080" stop-opacity="0.1"/>
</linearGradient>
</defs>
</svg>
