<svg width="574" height="555" viewBox="0 0 574 555" fill="none" xmlns="http://www.w3.org/2000/svg">
<path opacity="0.1" d="M547.529 481.684C542.154 484.272 536.521 486.507 530.964 488.735C510.435 496.83 489.597 504.995 467.543 507.774C426.153 512.984 383.404 498.875 342.716 507.654C308.627 515.001 280.435 537.516 247.132 547.543C231.646 552.203 215.534 554.03 199.279 554.03H197.15C195.136 554.006 193.138 553.959 191.155 553.889C174.673 553.31 158.123 551.033 141.965 548.121C90.9491 538.954 39.0268 522.151 0.0227051 491.217C113.592 471.812 347.533 442.063 547.529 481.684Z" fill="#252223"/>
<path d="M396.647 483.856C396.647 483.856 378.021 424.795 400.143 381.345C409.429 363.104 412.51 342.62 408.221 322.82C406.171 313.419 403.201 304.214 399.35 295.32" stroke="#535461" stroke-width="2" stroke-miterlimit="10"/>
<path d="M413.084 267.862C413.084 275.104 399.048 296.067 399.048 296.067C399.048 296.067 385.012 275.076 385.012 267.862C384.969 266.116 385.3 264.379 385.985 262.754C386.671 261.128 387.698 259.647 389.005 258.398C390.312 257.148 391.874 256.155 393.598 255.477C395.322 254.799 397.174 254.45 399.044 254.45C400.915 254.45 402.766 254.799 404.49 255.477C406.214 256.155 407.776 257.148 409.083 258.398C410.391 259.647 411.417 261.128 412.103 262.754C412.789 264.379 413.119 266.116 413.076 267.862H413.084Z" fill="#5B22FF"/>
<path d="M436.308 307.956C432.095 314.034 408.101 324.526 408.101 324.526C408.101 324.526 408.538 299.783 412.751 293.705C414.818 290.882 417.984 288.925 421.573 288.252C425.163 287.578 428.893 288.242 431.966 290.1C435.04 291.958 437.214 294.865 438.025 298.199C438.836 301.534 438.22 305.033 436.308 307.949V307.956Z" fill="#5B22FF"/>
<path d="M435.289 376.473C428.365 379.73 401.985 377.481 401.985 377.481C401.985 377.481 415.734 356.327 422.657 353.07C424.307 352.254 426.114 351.753 427.974 351.597C429.833 351.442 431.707 351.634 433.485 352.163C435.264 352.692 436.912 353.547 438.333 354.678C439.753 355.809 440.918 357.194 441.758 358.75C442.599 360.307 443.099 362.005 443.228 363.744C443.358 365.483 443.115 367.229 442.513 368.879C441.911 370.529 440.963 372.051 439.724 373.355C438.485 374.659 436.979 375.719 435.296 376.473H435.289Z" fill="#5B22FF"/>
<path d="M422.023 428.151C415.794 432.452 389.376 434.398 389.376 434.398C389.376 434.398 399.101 411.383 405.33 407.075C406.81 406.035 408.497 405.279 410.292 404.851C412.087 404.422 413.955 404.33 415.788 404.579C417.621 404.828 419.384 405.414 420.973 406.302C422.563 407.191 423.949 408.364 425.051 409.755C426.152 411.146 426.948 412.727 427.393 414.407C427.837 416.087 427.921 417.832 427.639 419.542C427.358 421.252 426.717 422.893 425.753 424.371C424.789 425.849 423.521 427.133 422.023 428.151Z" fill="#5B22FF"/>
<path d="M378.632 325.929C384.189 330.971 410.064 336.217 410.064 336.217C410.064 336.217 403.722 312.194 398.165 307.145C395.476 304.819 391.92 303.568 388.257 303.658C384.594 303.749 381.114 305.173 378.56 307.628C376.007 310.083 374.582 313.373 374.592 316.795C374.601 320.218 376.043 323.501 378.61 325.943L378.632 325.929Z" fill="#5B22FF"/>
<path d="M363.94 386.549C370.863 389.806 397.244 387.557 397.244 387.557C397.244 387.557 383.495 366.403 376.571 363.146C374.922 362.33 373.114 361.829 371.255 361.674C369.396 361.518 367.522 361.71 365.743 362.239C363.964 362.768 362.316 363.623 360.896 364.755C359.475 365.886 358.311 367.27 357.47 368.827C356.629 370.383 356.13 372.081 356 373.82C355.871 375.559 356.114 377.305 356.716 378.955C357.317 380.605 358.266 382.127 359.505 383.431C360.744 384.735 362.249 385.795 363.932 386.549H363.94Z" fill="#5B22FF"/>
<path d="M358.315 447.302C364.544 451.603 390.962 453.55 390.962 453.55C390.962 453.55 381.237 430.534 375.008 426.226C373.528 425.186 371.841 424.43 370.046 424.002C368.251 423.573 366.383 423.481 364.55 423.73C362.717 423.979 360.954 424.565 359.365 425.454C357.775 426.342 356.389 427.515 355.287 428.906C354.186 430.298 353.39 431.878 352.945 433.558C352.501 435.238 352.417 436.983 352.699 438.693C352.98 440.403 353.621 442.045 354.585 443.522C355.549 445 356.817 446.284 358.315 447.302Z" fill="#5B22FF"/>
<path opacity="0.25" d="M413.084 267.862C413.084 275.104 399.048 296.067 399.048 296.067C399.048 296.067 385.012 275.076 385.012 267.862C384.969 266.116 385.3 264.379 385.985 262.754C386.671 261.128 387.698 259.647 389.005 258.398C390.312 257.148 391.874 256.155 393.598 255.477C395.322 254.799 397.174 254.45 399.044 254.45C400.915 254.45 402.766 254.799 404.49 255.477C406.214 256.155 407.776 257.148 409.083 258.398C410.391 259.647 411.417 261.128 412.103 262.754C412.789 264.379 413.119 266.116 413.076 267.862H413.084Z" fill="black"/>
<path opacity="0.25" d="M436.308 307.956C432.095 314.034 408.101 324.526 408.101 324.526C408.101 324.526 408.538 299.783 412.751 293.705C414.818 290.882 417.984 288.925 421.573 288.252C425.163 287.578 428.893 288.242 431.966 290.1C435.04 291.958 437.214 294.865 438.025 298.199C438.836 301.534 438.22 305.033 436.308 307.949V307.956Z" fill="black"/>
<path opacity="0.25" d="M435.289 376.473C428.365 379.73 401.985 377.481 401.985 377.481C401.985 377.481 415.734 356.327 422.657 353.07C424.307 352.254 426.114 351.753 427.974 351.597C429.833 351.442 431.707 351.634 433.485 352.163C435.264 352.692 436.912 353.547 438.333 354.678C439.753 355.809 440.918 357.194 441.758 358.75C442.599 360.307 443.099 362.005 443.228 363.744C443.358 365.483 443.115 367.229 442.513 368.879C441.911 370.529 440.963 372.051 439.724 373.355C438.485 374.659 436.979 375.719 435.296 376.473H435.289Z" fill="black"/>
<path opacity="0.25" d="M422.023 428.151C415.794 432.452 389.376 434.398 389.376 434.398C389.376 434.398 399.101 411.383 405.33 407.075C406.81 406.035 408.497 405.279 410.292 404.851C412.087 404.422 413.955 404.33 415.788 404.579C417.621 404.828 419.384 405.414 420.973 406.302C422.563 407.191 423.949 408.364 425.051 409.755C426.152 411.146 426.948 412.727 427.393 414.407C427.837 416.087 427.921 417.832 427.639 419.542C427.358 421.252 426.717 422.893 425.753 424.371C424.789 425.849 423.521 427.133 422.023 428.151Z" fill="black"/>
<path opacity="0.25" d="M378.632 325.929C384.189 330.971 410.064 336.217 410.064 336.217C410.064 336.217 403.722 312.194 398.165 307.145C395.476 304.819 391.92 303.568 388.257 303.658C384.594 303.749 381.114 305.173 378.56 307.628C376.007 310.083 374.582 313.373 374.592 316.795C374.601 320.218 376.043 323.501 378.61 325.943L378.632 325.929Z" fill="black"/>
<path opacity="0.25" d="M363.94 386.549C370.863 389.806 397.244 387.557 397.244 387.557C397.244 387.557 383.495 366.403 376.571 363.146C374.922 362.33 373.114 361.829 371.255 361.674C369.396 361.518 367.522 361.71 365.743 362.239C363.964 362.768 362.316 363.623 360.896 364.755C359.475 365.886 358.311 367.27 357.47 368.827C356.629 370.383 356.13 372.081 356 373.82C355.871 375.559 356.114 377.305 356.716 378.955C357.317 380.605 358.266 382.127 359.505 383.431C360.744 384.735 362.249 385.795 363.932 386.549H363.94Z" fill="black"/>
<path opacity="0.25" d="M358.315 447.302C364.544 451.603 390.962 453.55 390.962 453.55C390.962 453.55 381.237 430.534 375.008 426.226C373.528 425.186 371.841 424.43 370.046 424.002C368.251 423.573 366.383 423.481 364.55 423.73C362.717 423.979 360.954 424.565 359.365 425.454C357.775 426.342 356.389 427.515 355.287 428.906C354.186 430.298 353.39 431.878 352.945 433.558C352.501 435.238 352.417 436.983 352.699 438.693C352.98 440.403 353.621 442.045 354.585 443.522C355.549 445 356.817 446.284 358.315 447.302Z" fill="black"/>
<path d="M72.7834 504.565C72.7834 504.565 54.1572 445.511 76.2791 402.033C85.5658 383.792 88.6462 363.308 84.3578 343.508C82.3071 334.107 79.3375 324.902 75.4863 316.008" stroke="#535461" stroke-width="2" stroke-miterlimit="10"/>
<path d="M89.2503 288.572C89.2503 295.814 75.2146 316.777 75.2146 316.777C75.2146 316.777 61.1788 295.785 61.1788 288.572C61.1354 286.825 61.4663 285.088 62.152 283.463C62.8377 281.838 63.8643 280.357 65.1716 279.107C66.4789 277.858 68.0404 276.865 69.7644 276.187C71.4884 275.509 73.3402 275.16 75.2108 275.16C77.0814 275.16 78.9331 275.509 80.6571 276.187C82.3811 276.865 83.9427 277.858 85.25 279.107C86.5572 280.357 87.5839 281.838 88.2696 283.463C88.9552 285.088 89.2861 286.825 89.2427 288.572H89.2503Z" fill="#5B22FF"/>
<path d="M112.444 328.665C108.231 334.743 84.2371 345.236 84.2371 345.236C84.2371 345.236 84.6749 320.493 88.8879 314.415C89.866 312.923 91.1538 311.629 92.6755 310.61C94.1972 309.59 95.9221 308.865 97.7484 308.478C99.5747 308.09 101.466 308.048 103.31 308.353C105.154 308.659 106.914 309.306 108.486 310.257C110.058 311.207 111.411 312.442 112.464 313.888C113.517 315.335 114.25 316.963 114.619 318.678C114.987 320.393 114.985 322.159 114.612 323.873C114.238 325.587 113.501 327.214 112.444 328.658V328.665Z" fill="#5B22FF"/>
<path d="M111.433 397.182C104.509 400.44 78.1289 398.19 78.1289 398.19C78.1289 398.19 91.8777 377.037 98.8012 373.779C102.114 372.295 105.918 372.084 109.396 373.19C112.874 374.296 115.748 376.631 117.403 379.695C119.058 382.759 119.36 386.306 118.245 389.576C117.13 392.845 114.687 395.576 111.44 397.182H111.433Z" fill="#5B22FF"/>
<path d="M98.1671 448.861C91.9382 453.162 65.5203 455.108 65.5203 455.108C65.5203 455.108 75.2449 432.093 81.4737 427.784C84.4683 425.75 88.2024 424.903 91.8625 425.429C95.5226 425.954 98.8121 427.809 101.014 430.589C103.216 433.37 104.153 436.85 103.62 440.273C103.086 443.695 101.126 446.782 98.1671 448.861Z" fill="#5B22FF"/>
<path d="M54.7688 346.639C60.3257 351.681 86.2302 356.906 86.2302 356.906C86.2302 356.906 79.8881 332.882 74.3312 327.833C71.6426 325.508 68.0868 324.257 64.4236 324.347C60.7603 324.437 57.2802 325.862 54.7267 328.317C52.1732 330.771 50.749 334.061 50.7582 337.484C50.7675 340.906 52.2096 344.189 54.7763 346.632L54.7688 346.639Z" fill="#5B22FF"/>
<path d="M40.1063 407.258C47.0298 410.516 73.41 408.266 73.41 408.266C73.41 408.266 59.6612 387.113 52.7377 383.855C49.4279 382.394 45.6377 382.198 42.1755 383.31C38.7134 384.421 35.8533 386.752 34.2054 389.806C32.5575 392.859 32.2522 396.392 33.3546 399.653C34.457 402.913 36.8798 405.642 40.1063 407.258Z" fill="#5B22FF"/>
<path d="M34.4513 468.012C40.6801 472.313 67.0981 474.259 67.0981 474.259C67.0981 474.259 57.3735 451.244 51.1446 446.921C48.15 444.887 44.4159 444.04 40.7558 444.566C37.0957 445.091 33.8062 446.946 31.604 449.726C29.4018 452.507 28.4654 455.987 28.9987 459.41C29.532 462.832 31.4918 465.919 34.4513 467.998V468.012Z" fill="#5B22FF"/>
<path opacity="0.25" d="M89.2503 288.572C89.2503 295.814 75.2146 316.777 75.2146 316.777C75.2146 316.777 61.1788 295.785 61.1788 288.572C61.1354 286.825 61.4663 285.088 62.152 283.463C62.8377 281.838 63.8643 280.357 65.1716 279.107C66.4789 277.858 68.0404 276.865 69.7644 276.187C71.4884 275.509 73.3402 275.16 75.2108 275.16C77.0814 275.16 78.9331 275.509 80.6571 276.187C82.3811 276.865 83.9427 277.858 85.25 279.107C86.5572 280.357 87.5839 281.838 88.2696 283.463C88.9552 285.088 89.2861 286.825 89.2427 288.572H89.2503Z" fill="black"/>
<path opacity="0.25" d="M112.444 328.665C108.231 334.743 84.2371 345.236 84.2371 345.236C84.2371 345.236 84.6749 320.493 88.8879 314.415C89.866 312.923 91.1538 311.629 92.6755 310.61C94.1972 309.59 95.9221 308.865 97.7484 308.478C99.5747 308.09 101.466 308.048 103.31 308.353C105.154 308.659 106.914 309.306 108.486 310.257C110.058 311.207 111.411 312.442 112.464 313.888C113.517 315.335 114.25 316.963 114.619 318.678C114.987 320.393 114.985 322.159 114.612 323.873C114.238 325.587 113.501 327.214 112.444 328.658V328.665Z" fill="black"/>
<path opacity="0.25" d="M111.433 397.182C104.509 400.44 78.1289 398.19 78.1289 398.19C78.1289 398.19 91.8777 377.037 98.8012 373.779C102.114 372.295 105.918 372.084 109.396 373.19C112.874 374.296 115.748 376.631 117.403 379.695C119.058 382.759 119.36 386.306 118.245 389.576C117.13 392.845 114.687 395.576 111.44 397.182H111.433Z" fill="black"/>
<path opacity="0.25" d="M98.1671 448.861C91.9382 453.162 65.5203 455.108 65.5203 455.108C65.5203 455.108 75.2449 432.093 81.4737 427.784C84.4683 425.75 88.2024 424.903 91.8625 425.429C95.5226 425.954 98.8121 427.809 101.014 430.589C103.216 433.37 104.153 436.85 103.62 440.273C103.086 443.695 101.126 446.782 98.1671 448.861Z" fill="black"/>
<path opacity="0.25" d="M54.7688 346.639C60.3257 351.681 86.2302 356.906 86.2302 356.906C86.2302 356.906 79.8881 332.882 74.3312 327.833C71.6426 325.508 68.0868 324.257 64.4236 324.347C60.7603 324.437 57.2802 325.862 54.7267 328.317C52.1732 330.771 50.749 334.061 50.7582 337.484C50.7675 340.906 52.2096 344.189 54.7763 346.632L54.7688 346.639Z" fill="black"/>
<path opacity="0.25" d="M40.1063 407.258C47.0298 410.516 73.41 408.266 73.41 408.266C73.41 408.266 59.6612 387.113 52.7377 383.855C49.4279 382.394 45.6377 382.198 42.1755 383.31C38.7134 384.421 35.8533 386.752 34.2054 389.806C32.5575 392.859 32.2522 396.392 33.3546 399.653C34.457 402.913 36.8798 405.642 40.1063 407.258Z" fill="black"/>
<path opacity="0.25" d="M34.4513 468.012C40.6801 472.313 67.0981 474.259 67.0981 474.259C67.0981 474.259 57.3735 451.244 51.1446 446.921C48.15 444.887 44.4159 444.04 40.7558 444.566C37.0957 445.091 33.8062 446.946 31.604 449.726C29.4018 452.507 28.4654 455.987 28.9987 459.41C29.532 462.832 31.4918 465.919 34.4513 467.998V468.012Z" fill="black"/>
<path d="M300.541 465.861C300.541 465.861 290.454 433.884 302.429 410.354C307.518 400.513 309.052 389.397 306.8 378.673C305.689 373.589 304.082 368.611 301.998 363.802" stroke="#535461" stroke-width="2" stroke-miterlimit="10"/>
<path d="M309.45 348.909C309.45 352.83 301.855 364.189 301.855 364.189C301.855 364.189 294.26 352.844 294.26 348.909C294.26 347.977 294.456 347.054 294.838 346.193C295.22 345.332 295.78 344.55 296.485 343.891C297.191 343.232 298.029 342.709 298.951 342.353C299.873 341.996 300.861 341.812 301.859 341.812C302.857 341.812 303.845 341.996 304.767 342.353C305.689 342.709 306.527 343.232 307.232 343.891C307.938 344.55 308.498 345.332 308.879 346.193C309.261 347.054 309.458 347.977 309.458 348.909H309.45Z" fill="#5B22FF"/>
<path d="M322.014 370.634C319.749 373.92 306.74 379.603 306.74 379.603C306.74 379.603 306.974 366.206 309.254 362.92C310.349 361.341 312.072 360.233 314.042 359.839C316.012 359.446 318.069 359.799 319.76 360.822C321.451 361.845 322.638 363.454 323.059 365.294C323.48 367.134 323.102 369.055 322.006 370.634H322.014Z" fill="#5B22FF"/>
<path d="M321.463 407.724C317.688 409.486 303.433 408.266 303.433 408.266C303.433 408.266 310.877 396.815 314.622 395.052C316.424 394.205 318.513 394.061 320.429 394.653C322.345 395.244 323.93 396.521 324.838 398.204C325.745 399.887 325.899 401.838 325.266 403.627C324.633 405.416 323.265 406.898 321.463 407.745V407.724Z" fill="#5B22FF"/>
<path d="M314.282 435.703C310.908 438.03 296.608 439.087 296.608 439.087C296.608 439.087 301.893 426.628 305.245 424.28C306.865 423.158 308.896 422.683 310.891 422.959C312.886 423.235 314.682 424.241 315.883 425.753C317.085 427.266 317.593 429.163 317.297 431.026C317.001 432.889 315.925 434.567 314.305 435.689L314.282 435.703Z" fill="#5B22FF"/>
<path d="M290.771 380.365C293.791 383.094 307.805 385.921 307.805 385.921C307.805 385.921 304.362 372.884 301.342 370.183C299.884 368.933 297.962 368.264 295.984 368.318C294.006 368.372 292.129 369.144 290.752 370.471C289.375 371.797 288.606 373.574 288.61 375.422C288.613 377.269 289.389 379.043 290.771 380.365Z" fill="#5B22FF"/>
<path d="M282.836 413.181C286.611 414.944 300.866 413.724 300.866 413.724C300.866 413.724 293.421 402.273 289.676 400.51C287.874 399.663 285.786 399.519 283.87 400.11C281.954 400.701 280.368 401.979 279.461 403.662C278.554 405.345 278.4 407.296 279.033 409.085C279.666 410.874 281.034 412.355 282.836 413.203V413.181Z" fill="#5B22FF"/>
<path d="M279.786 446.075C283.161 448.402 297.461 449.46 297.461 449.46C297.461 449.46 292.176 437 288.823 434.652C288.021 434.097 287.11 433.694 286.141 433.467C285.172 433.241 284.165 433.195 283.177 433.331C281.182 433.608 279.387 434.613 278.185 436.126C276.984 437.639 276.475 439.536 276.771 441.399C277.067 443.262 278.143 444.939 279.763 446.061L279.786 446.075Z" fill="#5B22FF"/>
<path opacity="0.5" d="M309.45 348.909C309.45 352.83 301.855 364.189 301.855 364.189C301.855 364.189 294.26 352.844 294.26 348.909C294.26 347.977 294.456 347.054 294.838 346.193C295.22 345.332 295.78 344.55 296.485 343.891C297.191 343.232 298.029 342.709 298.951 342.353C299.873 341.996 300.861 341.812 301.859 341.812C302.857 341.812 303.845 341.996 304.767 342.353C305.689 342.709 306.527 343.232 307.232 343.891C307.938 344.55 308.498 345.332 308.879 346.193C309.261 347.054 309.458 347.977 309.458 348.909H309.45Z" fill="white"/>
<path opacity="0.5" d="M322.014 370.634C319.749 373.92 306.74 379.603 306.74 379.603C306.74 379.603 306.974 366.206 309.254 362.92C310.349 361.341 312.072 360.233 314.042 359.839C316.012 359.446 318.069 359.799 319.76 360.822C321.451 361.845 322.638 363.454 323.059 365.294C323.48 367.134 323.102 369.055 322.006 370.634H322.014Z" fill="white"/>
<path opacity="0.5" d="M321.463 407.724C317.688 409.486 303.433 408.266 303.433 408.266C303.433 408.266 310.877 396.815 314.622 395.052C316.424 394.205 318.513 394.061 320.429 394.653C322.345 395.244 323.93 396.521 324.838 398.204C325.745 399.887 325.899 401.838 325.266 403.627C324.633 405.416 323.265 406.898 321.463 407.745V407.724Z" fill="white"/>
<path opacity="0.5" d="M314.282 435.703C310.908 438.03 296.608 439.087 296.608 439.087C296.608 439.087 301.893 426.628 305.245 424.28C306.865 423.158 308.896 422.683 310.891 422.959C312.886 423.235 314.682 424.241 315.883 425.753C317.085 427.266 317.593 429.163 317.297 431.026C317.001 432.889 315.925 434.567 314.305 435.689L314.282 435.703Z" fill="white"/>
<path opacity="0.5" d="M290.771 380.365C293.791 383.094 307.805 385.921 307.805 385.921C307.805 385.921 304.362 372.884 301.342 370.183C299.884 368.933 297.962 368.264 295.984 368.318C294.006 368.372 292.129 369.144 290.752 370.471C289.375 371.797 288.606 373.574 288.61 375.422C288.613 377.269 289.389 379.043 290.771 380.365Z" fill="white"/>
<path opacity="0.5" d="M282.836 413.181C286.611 414.944 300.866 413.724 300.866 413.724C300.866 413.724 293.421 402.273 289.676 400.51C287.874 399.663 285.786 399.519 283.87 400.11C281.954 400.701 280.368 401.979 279.461 403.662C278.554 405.345 278.4 407.296 279.033 409.085C279.666 410.874 281.034 412.355 282.836 413.203V413.181Z" fill="white"/>
<path opacity="0.5" d="M279.786 446.075C283.161 448.402 297.461 449.46 297.461 449.46C297.461 449.46 292.176 437 288.823 434.652C288.021 434.097 287.11 433.694 286.141 433.467C285.172 433.241 284.165 433.195 283.177 433.331C281.182 433.608 279.387 434.613 278.185 436.126C276.984 437.639 276.475 439.536 276.771 441.399C277.067 443.262 278.143 444.939 279.763 446.061L279.786 446.075Z" fill="white"/>
<path d="M231.042 71.7255V150.833L270.242 103.759" stroke="#535461" stroke-width="2" stroke-miterlimit="10"/>
<path d="M191.14 96.5669L231.042 150.833" stroke="#535461" stroke-width="2" stroke-miterlimit="10"/>
<g opacity="0.7">
<path opacity="0.7" d="M303.146 62.4253C303.143 57.7786 301.962 53.1985 299.701 49.0592C297.441 44.9199 294.163 41.3387 290.138 38.6082C286.112 35.8778 281.451 34.0754 276.537 33.3483C271.623 32.6213 266.594 32.9902 261.862 34.4249C262.122 32.7694 262.255 31.0988 262.262 29.4256C262.256 21.8028 259.086 14.4791 253.417 8.99483C247.748 3.51053 240.023 0.293037 231.866 0.0190463C223.709 -0.254944 215.756 2.43592 209.68 7.5257C203.604 12.6155 199.878 19.7075 199.286 27.3102C194.552 25.8714 189.521 25.4993 184.604 26.2244C179.687 26.9495 175.023 28.7512 170.994 31.4822C166.966 34.2131 163.686 37.7958 161.424 41.9373C159.162 46.0788 157.981 50.6615 157.979 55.3106C157.979 70.1182 169.629 91.0956 184.82 94.7975L187.183 96.0597L185.9 100.164H193.495L191.864 96.0667L194.212 94.8116C205.945 91.9347 215.572 78.7348 219.339 66.0708C221.403 67.3546 223.674 68.3189 226.066 68.9266L228.43 70.1887L227.146 74.2925H234.742L233.088 70.1817L235.436 68.9266C237.185 68.4894 238.868 67.8523 240.45 67.0298C242.48 81.238 253.285 98.577 266.943 101.926L269.306 103.188L268.023 107.292H275.618L273.965 103.181L276.313 101.926C291.526 98.2103 303.146 77.1977 303.146 62.4253Z" fill="url(#paint0_linear)"/>
</g>
<path d="M194.696 98.6753H187.349L188.633 94.5574H193.042L194.696 98.6753Z" fill="#5B22FF"/>
<path d="M221.31 55.2538C221.31 70.9921 207.652 94.0356 190.8 94.0356C173.948 94.0356 160.29 70.978 160.29 55.2538C160.416 47.7753 163.685 40.6429 169.392 35.3959C175.1 30.1489 182.787 27.208 190.796 27.208C198.805 27.208 206.492 30.1489 212.2 35.3959C217.907 40.6429 221.176 47.7753 221.302 55.2538H221.31Z" fill="#5B22FF"/>
<path opacity="0.2" d="M221.31 55.2538C221.31 70.9921 207.652 94.0356 190.8 94.0356C173.948 94.0356 160.29 70.978 160.29 55.2538C160.416 47.7753 163.685 40.6429 169.392 35.3959C175.1 30.1489 182.787 27.208 190.796 27.208C198.805 27.208 206.492 30.1489 212.2 35.3959C217.907 40.6429 221.176 47.7753 221.302 55.2538H221.31Z" fill="white"/>
<path d="M193.042 94.7335H188.633L186.058 93.3585H195.617L193.042 94.7335Z" fill="#535461"/>
<path opacity="0.1" d="M179.784 33.1058C179.784 33.1058 166.949 39.6282 165.084 52.673L179.784 33.1058Z" fill="white"/>
<path d="M234.591 73.6293H227.244L228.528 69.5114H232.937L234.591 73.6293Z" fill="#5B22FF"/>
<path opacity="0.07" d="M234.591 73.6293H227.244L228.528 69.5114H232.937L234.591 73.6293Z" fill="black"/>
<path d="M261.243 30.1936C261.243 45.932 247.584 68.9754 230.733 68.9754C213.881 68.9754 200.222 45.9179 200.222 30.1936C200.348 22.7151 203.618 15.5827 209.325 10.3357C215.033 5.08867 222.72 2.14783 230.729 2.14783C238.737 2.14783 246.425 5.08867 252.132 10.3357C257.84 15.5827 261.109 22.7151 261.235 30.1936H261.243Z" fill="#5B22FF"/>
<path d="M232.937 69.6806H228.528L225.953 68.3126H235.512L232.937 69.6806Z" fill="#535461"/>
<path opacity="0.1" d="M219.702 8.05994C219.702 8.05994 206.866 14.5823 205.002 27.6271L219.702 8.05994Z" fill="white"/>
<path d="M274.153 105.564H266.8L268.091 101.446H272.5L274.153 105.564Z" fill="#5B22FF"/>
<path d="M300.798 62.1358C300.798 77.8741 287.14 100.918 270.288 100.918C253.436 100.918 239.778 77.86 239.778 62.1358C239.904 54.6572 243.173 47.5248 248.88 42.2778C254.588 37.0308 262.275 34.09 270.284 34.09C278.293 34.09 285.98 37.0308 291.688 42.2778C297.395 47.5248 300.664 54.6572 300.79 62.1358H300.798Z" fill="#5B22FF"/>
<path opacity="0.2" d="M300.798 62.1358C300.798 77.8741 287.14 100.918 270.288 100.918C253.436 100.918 239.778 77.86 239.778 62.1358C239.904 54.6572 243.173 47.5248 248.88 42.2778C254.588 37.0308 262.275 34.09 270.284 34.09C278.293 34.09 285.98 37.0308 291.688 42.2778C297.395 47.5248 300.664 54.6572 300.79 62.1358H300.798Z" fill="white"/>
<path d="M272.5 101.623H268.091L265.516 100.248H275.074L272.5 101.623Z" fill="#535461"/>
<path opacity="0.1" d="M259.265 39.9949C259.265 39.9949 246.429 46.5173 244.564 59.562L259.265 39.9949Z" fill="white"/>
<path d="M268.808 521.735C263.523 520.607 259.181 514.684 259.181 514.684L258.751 514.747L263.961 450.151C263.961 450.151 269.487 440.766 263.961 427.15C262.858 424.442 261.824 421.6 260.858 418.787L261.696 418.463L261.53 417.588L261.696 417.525C261.696 417.525 245.621 335.251 245.47 308.47C245.47 305.234 245.78 302.921 246.399 301.814C248.936 297.294 253.481 290.793 253.292 282.677C253.458 274.751 249.208 265.225 233.964 254.472C235.18 245.447 238.177 226.444 243.387 213.575C243.387 213.575 245.395 205.114 243.387 192.421L240.366 156.749C240.366 156.749 240.872 140.32 229.796 140.32C218.72 140.32 230.302 158.653 230.302 158.653L229.298 205.121C229.298 205.121 228.966 207.525 228.399 211.305C225.734 208.487 222.204 206.505 218.29 205.628C218.446 203.93 218.188 202.221 217.535 200.629C217.308 200.763 217.074 200.883 216.84 201.003C216.75 200.721 216.644 200.439 216.531 200.164C214.173 201.528 211.459 202.26 208.686 202.279C206.149 202.279 203.658 201.708 201.136 201.532C196.857 201.251 192.583 202.14 188.837 204.091C188.316 204.042 187.787 203.978 187.259 203.908C177.368 202.498 170.49 214.273 160.584 219.089C153.638 222.467 150.829 230.371 149.742 237.606C148.655 244.84 148.526 252.547 144.457 258.823C141.694 263.11 135.51 265.585 134.347 270.464C132.082 279.984 134.596 277.635 137.111 290.307C137.941 294.495 139.021 296.166 140.078 300.312C141.225 304.783 139.957 309.479 139.783 314.048C139.345 326.084 147.636 337.705 159.15 342.88C162.049 344.314 165.177 345.302 168.414 345.807C167.894 351.188 165.493 356.26 161.581 360.241C161.966 360.36 162.336 360.459 162.743 360.544L162.585 360.706C169.229 362.737 176.568 360.389 182.427 356.821C184.135 355.776 185.767 354.627 187.312 353.38C186.405 355.372 185.667 357.428 185.107 359.528L185.062 359.571L183.854 359.296C183.854 359.296 184.201 359.479 184.828 359.775C181.49 362.666 148.745 390.892 136.159 396.286C133.388 396.343 124.328 411.44 147.915 416.799C166.511 421.029 170.565 414.923 180.079 425.718C182.75 428.608 186.194 430.786 190.06 432.029C187.342 440.124 183.046 450.285 178.063 452.478C169.516 456.236 155.412 475.944 153.902 482.988L141.278 508.112H141.044L138.485 510.671C137.975 511.182 137.606 511.801 137.409 512.474C137.213 513.148 137.196 513.856 137.358 514.537C137.521 515.219 137.86 515.853 138.344 516.384C138.828 516.916 139.444 517.329 140.138 517.589C147.432 520.303 159.301 524.069 164.669 522.193C172.71 519.373 160.139 516.552 160.139 516.552C155.11 514.677 152.588 508.57 152.588 508.57L193.042 465.621C193.042 465.621 208.897 459.881 212.136 447.789C212.34 447.02 214.726 441.09 217.474 434.342C220.041 434.166 222.48 433.933 224.7 433.707C228.294 433.334 232.552 432.008 236.871 430.259C239.491 438.53 241.741 447.5 240.782 451.54C238.773 460.001 236.252 470.783 240.782 484.864L248.573 516.08H249.283L248.483 516.193L246.407 519.062C245.984 519.646 245.72 520.317 245.638 521.017C245.556 521.718 245.659 522.426 245.937 523.081C246.216 523.736 246.661 524.317 247.235 524.775C247.809 525.232 248.494 525.551 249.23 525.705C256.894 527.326 269.185 529.308 274.146 526.678C281.711 522.694 268.808 521.735 268.808 521.735ZM202.555 291.371C202.388 287.968 202.441 284.558 202.714 281.161C203.368 287.344 204.519 293.472 206.157 299.494C208.349 303.817 209.533 308.525 209.63 313.308C209.571 319.991 206.909 326.425 202.14 331.408L202.095 331.45C205.825 318.49 203.19 304.776 202.555 291.364V291.371Z" fill="url(#paint1_linear)"/>
<path d="M206.602 262.588C202.269 269.435 203.054 281.951 209.071 304.839C209.071 304.839 215.949 322.277 202.193 336.957C188.437 351.638 185.492 364.457 185.492 364.457C185.492 364.457 142.305 389.447 136.854 400.701C144.963 383.954 118.341 407.928 149.138 414.923C167.311 419.055 171.245 413.09 180.577 423.638C189.909 434.187 211.034 432.805 224.3 431.437C237.566 430.069 260.163 415.381 260.163 415.381C260.163 415.381 235.112 316.742 240.533 307.103C245.644 297.985 264.029 280.66 228.015 258.223C220.819 253.781 210.989 255.657 206.602 262.588Z" fill="#F0898B"/>
<path opacity="0.1" d="M206.602 262.588C202.268 269.435 203.054 281.951 209.071 304.839C209.071 304.839 215.949 322.277 202.193 336.957C188.437 351.638 185.492 364.457 185.492 364.457C185.492 364.457 142.026 389.334 136.854 400.701C144.472 383.954 118.341 407.928 149.138 414.923C167.311 419.055 171.245 413.09 180.577 423.638C189.909 434.187 211.034 432.805 224.3 431.437C237.565 430.069 260.163 415.381 260.163 415.381C260.163 415.381 235.112 316.742 240.533 307.103C245.644 297.985 264.029 280.66 228.014 258.223C220.819 253.781 210.989 255.657 206.602 262.588Z" fill="black"/>
<path d="M193.374 419.534C193.374 419.534 186.987 446.146 178.637 449.812C170.286 453.479 156.53 472.75 155.057 479.632L142.532 504.636H153.857L193.374 462.667C193.374 462.667 208.875 457.026 212.046 445.229C212.537 443.396 225.802 411.277 225.802 411.277L193.374 419.534Z" fill="#FDB797"/>
<path d="M230.189 411.277C230.189 411.277 241.982 440.639 240.004 448.903C238.026 457.167 235.58 467.715 240.004 481.479L247.622 511.99L257.437 511.532L262.594 447.528C262.594 447.528 268 438.361 262.594 425.048C257.188 411.736 253.262 395.229 253.262 395.229L230.189 411.277Z" fill="#FDB797"/>
<path d="M232.635 261.248C232.635 261.248 235.58 233.262 242.45 216.283C242.45 216.283 244.413 208.026 242.45 195.637L239.506 160.768C239.506 160.768 239.996 144.713 229.192 144.713C218.388 144.713 229.683 162.609 229.683 162.609L228.701 208.033C228.701 208.033 222.314 254.373 217.897 259.422L232.635 261.248Z" fill="#FDB797"/>
<path opacity="0.05" d="M232.635 261.248C232.635 261.248 235.58 233.262 242.45 216.283C242.45 216.283 244.413 208.026 242.45 195.637L239.506 160.768C239.506 160.768 239.996 144.713 229.192 144.713C218.388 144.713 229.683 162.609 229.683 162.609L228.701 208.033C228.701 208.033 222.314 254.373 217.897 259.422L232.635 261.248Z" fill="black"/>
<path d="M230.189 228.213C230.189 228.213 228.226 250.234 234.122 257.575C234.122 257.575 220.366 250.693 208.58 256.658C208.58 256.658 215.949 237.845 213.495 229.588L230.189 228.213Z" fill="#FDB797"/>
<path opacity="0.1" d="M206.602 257.998C202.268 264.845 200.102 277.361 206.119 300.249C206.119 300.249 215.934 317.687 202.185 332.367C188.437 347.048 185.484 359.867 185.484 359.867C185.484 359.867 149.131 391.527 136.846 396.11C136.846 396.11 130.95 406.201 149.131 410.333C167.311 414.465 171.237 408.499 180.569 419.048C189.901 429.597 211.027 428.215 224.292 426.847C237.558 425.479 260.397 416.524 260.397 416.524C260.397 416.524 240.012 312.165 245.41 302.512C250.521 293.395 263.991 276.07 227.984 253.633C220.819 249.191 210.989 251.074 206.602 257.998Z" fill="black"/>
<path d="M206.602 257.081C202.268 263.928 200.102 276.444 206.119 299.332C206.119 299.332 215.934 316.77 202.185 331.451C188.437 346.131 185.484 358.95 185.484 358.95C185.484 358.95 149.131 390.61 136.846 395.194C136.846 395.194 130.95 405.284 149.131 409.416C167.311 413.548 171.237 407.583 180.569 418.131C189.901 428.68 211.027 427.298 224.292 425.93C237.558 424.562 260.397 415.607 260.397 415.607C260.397 415.607 240.012 311.249 245.41 301.596C250.521 292.478 263.991 275.154 227.984 252.716C220.819 248.274 210.989 250.15 206.602 257.081Z" fill="#F0898B"/>
<path d="M221.348 283.735C230.571 283.735 238.049 276.752 238.049 268.137C238.049 259.523 230.571 252.54 221.348 252.54C212.124 252.54 204.647 259.523 204.647 268.137C204.647 276.752 212.124 283.735 221.348 283.735Z" fill="#FDB797"/>
<path opacity="0.1" d="M215.451 274.554L212.016 322.728L223.341 374.117C223.341 374.117 213.027 408.069 223.341 404.854C233.654 401.638 234.145 373.659 234.145 373.659L227.244 319.999C227.244 319.999 235.595 279.624 234.123 271.346C232.65 263.068 215.451 274.554 215.451 274.554Z" fill="black"/>
<path d="M215.451 273.637L212.016 321.811L223.341 373.201C223.341 373.201 213.005 407.152 223.311 403.909C233.617 400.665 234.145 372.742 234.145 372.742L227.267 319.061C227.267 319.061 235.617 278.686 234.145 270.408C232.673 262.13 215.451 273.637 215.451 273.637Z" fill="#FDB797"/>
<path opacity="0.03" d="M213.239 243.141C220.193 243.141 226.52 241.286 229.849 236.09C229.894 232.035 230.159 229.123 230.159 229.123L213.458 230.533C214.515 234.059 213.933 237.105 212.703 242.231C213.058 242.224 212.929 243.141 213.239 243.141Z" fill="black"/>
<path d="M213.488 243.825C224.071 243.825 232.65 235.813 232.65 225.929C232.65 216.045 224.071 208.033 213.488 208.033C202.905 208.033 194.326 216.045 194.326 225.929C194.326 235.813 202.905 243.825 213.488 243.825Z" fill="#FDB797"/>
<path opacity="0.03" d="M234.364 294.974C234.364 294.974 235.874 301.856 245.418 302.547L234.364 294.974Z" fill="black"/>
<path opacity="0.03" d="M183.521 418.159C174.189 407.583 170.256 413.569 152.083 409.444C133.909 405.319 139.768 395.222 139.768 395.222C152.052 390.631 188.406 358.978 188.406 358.978C188.406 358.978 191.351 346.131 205.107 331.479C218.864 316.826 209.041 299.36 209.041 299.36C203.001 276.479 205.183 263.956 209.524 257.109C210.718 255.232 212.372 253.647 214.35 252.484C216.328 251.321 218.574 250.612 220.902 250.418C218.077 250.138 215.225 250.62 212.683 251.806C210.141 252.992 208.015 254.832 206.557 257.109C202.223 263.956 200.056 276.472 206.074 299.36C206.074 299.36 215.889 316.798 202.14 331.479C188.391 346.159 185.439 358.978 185.439 358.978C185.439 358.978 149.085 390.638 136.801 395.222C136.801 395.222 130.904 405.312 149.085 409.444C167.266 413.576 171.192 407.611 180.524 418.159C186.979 425.457 199.067 427.051 210.302 426.882C200.003 426.727 189.411 424.823 183.521 418.159Z" fill="black"/>
<path opacity="0.1" d="M220.442 246.666C219.823 245.383 218.501 244.551 217.505 243.486C214.266 240.052 214.824 234.905 214.636 230.329C214.444 225.957 213.398 221.656 211.548 217.637C212.707 217.1 213.761 216.385 214.666 215.521C216.232 213.961 217.299 212.022 217.743 209.924C218.188 207.826 217.993 205.653 217.18 203.654C214.876 204.99 212.221 205.707 209.509 205.727C207.033 205.727 204.594 205.17 202.118 205.022C197.933 204.747 193.754 205.617 190.09 207.525C189.577 207.476 189.063 207.419 188.58 207.342C178.908 205.974 172.189 217.474 162.509 222.185C155.714 225.492 152.974 233.206 151.939 240.285C150.905 247.364 150.746 254.895 146.805 261.023C144.102 265.211 138.054 267.63 136.922 272.403C134.71 281.711 137.164 279.412 139.617 291.801C140.433 295.898 141.482 297.534 142.517 301.581C143.634 305.953 142.396 310.515 142.23 314.979C141.694 329.73 154.567 343.854 170.248 345.708C169.806 351.084 167.442 356.164 163.536 360.135C170.029 362.123 177.21 359.825 182.933 356.334C192.203 350.609 198.969 341.971 202.004 331.986C205.862 319.195 203.205 305.601 202.593 292.323C201.982 279.046 204.224 264.28 215.036 255.657C218.048 253.231 222.065 250.058 220.442 246.666Z" fill="black"/>
<path d="M219.46 246.222C218.841 244.939 217.52 244.107 216.523 243.042C213.284 239.608 213.843 234.461 213.654 229.885C213.463 225.513 212.416 221.212 210.566 217.192C211.725 216.656 212.779 215.94 213.684 215.077C215.254 213.516 216.322 211.574 216.766 209.473C217.211 207.372 217.014 205.197 216.198 203.196C213.894 204.532 211.24 205.249 208.528 205.269C206.051 205.269 203.612 204.712 201.136 204.564C196.952 204.289 192.772 205.159 189.109 207.067C188.595 207.017 188.082 206.961 187.599 206.883C177.927 205.516 171.207 217.016 161.528 221.726C154.733 225.033 151.992 232.747 150.958 239.827C149.923 246.906 149.765 254.437 145.824 260.564C143.121 264.753 137.073 267.172 135.94 271.945C133.728 281.253 136.182 278.954 138.636 291.343C139.451 295.44 140.501 297.076 141.535 301.123C142.652 305.495 141.414 310.057 141.248 314.521C140.712 329.272 153.585 343.395 169.267 345.25C168.824 350.625 166.46 355.706 162.555 359.677C169.048 361.665 176.228 359.366 181.951 355.876C191.244 350.166 198.035 341.531 201.091 331.542C204.949 318.751 202.291 305.156 201.68 291.879C201.068 278.602 203.31 263.836 214.122 255.213C217.067 252.773 221.083 249.6 219.46 246.222Z" fill="#252223"/>
<path d="M153.796 504.643C153.796 504.643 156.25 510.608 161.165 512.441C161.165 512.441 173.45 515.191 165.59 517.948C160.305 519.789 148.745 516.101 141.611 513.45C140.938 513.19 140.342 512.783 139.874 512.263C139.405 511.742 139.078 511.124 138.919 510.461C138.761 509.798 138.776 509.108 138.963 508.451C139.15 507.795 139.504 507.19 139.995 506.688L142.494 504.184L153.796 504.643Z" fill="#333333"/>
<path d="M257.943 510.608C257.943 510.608 262.194 516.411 267.351 517.511C267.351 517.511 279.944 518.449 272.636 522.306C267.774 524.873 255.754 522.941 248.264 521.354C247.545 521.202 246.877 520.889 246.317 520.442C245.757 519.994 245.323 519.426 245.051 518.786C244.78 518.146 244.679 517.454 244.759 516.77C244.839 516.086 245.096 515.43 245.508 514.86L247.539 512.039L257.943 510.608Z" fill="#333333"/>
<path opacity="0.03" d="M184.254 358.781C184.254 358.781 195.579 364.746 208.324 364.288L184.254 358.781Z" fill="black"/>
<path opacity="0.3" d="M161.618 185.878H158.485L159.029 184.115H160.916L161.618 185.878Z" fill="#5B22FF"/>
<path opacity="0.3" d="M172.989 167.34C172.989 174.039 167.16 183.911 159.973 183.911C152.785 183.911 146.956 174.039 146.956 167.361C146.956 164.137 148.327 161.045 150.769 158.765C153.21 156.486 156.52 155.205 159.973 155.205C163.425 155.205 166.735 156.486 169.177 158.765C171.618 161.045 172.989 164.137 172.989 167.361V167.34Z" fill="#5B22FF"/>
<path d="M160.916 184.193H159.029L157.934 183.607H162.011L160.916 184.193Z" fill="#535461"/>
<path opacity="0.1" d="M155.261 157.899C155.261 157.899 149.772 160.684 148.987 166.247L155.261 157.899Z" fill="white"/>
<path d="M160.297 183.861C159.468 184.716 158.853 185.734 158.497 186.839C158.142 187.944 158.055 189.109 158.244 190.25C158.931 194.085 162.351 197.921 161.664 202.392C160.977 206.862 158.923 209.443 158.923 211.34" stroke="#535461" stroke-width="0.75" stroke-miterlimit="10"/>
<path opacity="0.3" d="M499.986 224.37H496.845L497.396 222.608H499.276L499.986 224.37Z" fill="#5B22FF"/>
<path opacity="0.3" d="M511.349 205.833C511.349 212.546 505.52 222.382 498.332 222.382C491.145 222.382 485.316 212.51 485.316 205.833C485.316 202.609 486.687 199.517 489.128 197.237C491.569 194.957 494.88 193.677 498.332 193.677C501.785 193.677 505.095 194.957 507.536 197.237C509.977 199.517 511.349 202.609 511.349 205.833Z" fill="#5B22FF"/>
<path d="M499.276 222.685H497.396L496.302 222.1H500.379L499.276 222.685Z" fill="#535461"/>
<path opacity="0.1" d="M493.629 196.391C493.629 196.391 488.14 199.176 487.354 204.74L493.629 196.391Z" fill="white"/>
<path d="M498.665 222.354C497.835 223.209 497.22 224.226 496.865 225.331C496.51 226.437 496.423 227.602 496.611 228.742C497.298 232.578 500.718 236.414 500.031 240.885C499.344 245.355 497.29 247.936 497.29 249.833" stroke="#535461" stroke-width="0.75" stroke-miterlimit="10"/>
<path opacity="0.3" d="M558.484 203.393L555.411 202.787L556.34 201.172L558.182 201.539L558.484 203.393Z" fill="#5B22FF"/>
<path opacity="0.3" d="M573.713 187.436C572.203 194.008 564.343 202.505 557.307 201.116C550.27 199.727 546.737 188.973 548.247 182.409C549.008 179.299 551.047 176.594 553.924 174.876C556.801 173.158 560.286 172.565 563.628 173.224C566.969 173.884 569.899 175.744 571.785 178.402C573.672 181.061 574.364 184.305 573.713 187.436Z" fill="#5B22FF"/>
<path d="M558.167 201.609L556.325 201.25L555.381 200.46L559.368 201.25L558.167 201.609Z" fill="#535461"/>
<path opacity="0.1" d="M558.469 174.793C558.469 174.793 552.482 176.457 550.481 181.746L558.469 174.793Z" fill="white"/>
<path d="M557.639 201.165C556.637 201.841 555.81 202.717 555.217 203.729C554.624 204.742 554.28 205.865 554.211 207.017C554.03 210.903 556.529 215.317 554.868 219.562C553.207 223.806 550.632 225.908 550.209 227.783" stroke="#535461" stroke-width="0.75" stroke-miterlimit="10"/>
<defs>
<linearGradient id="paint0_linear" x1="230.566" y1="107.299" x2="230.566" y2="-0.0203609" gradientUnits="userSpaceOnUse">
<stop stop-color="#808080" stop-opacity="0.25"/>
<stop offset="0.54" stop-color="#808080" stop-opacity="0.12"/>
<stop offset="1" stop-color="#808080" stop-opacity="0.1"/>
</linearGradient>
<linearGradient id="paint1_linear" x1="70956.2" y1="312526" x2="70956.2" y2="99464.8" gradientUnits="userSpaceOnUse">
<stop stop-color="#808080" stop-opacity="0.25"/>
<stop offset="0.54" stop-color="#808080" stop-opacity="0.12"/>
<stop offset="1" stop-color="#808080" stop-opacity="0.1"/>
</linearGradient>
</defs>
</svg>
